# File created by Blade
# Date/Time:  Fri Jan 16 19:00:24 2015
# Frame Rate: 120.000 fps
#------------------------------------------------------
:FULLY-SPECIFIED
:DEGREES
910
root 19.229720 35.617149 -20.836593 -184.037891 -5.544973 -181.944641
Spine 5.326983 3.867321 -7.171826
Head 7.607139 -5.518497 9.442160
LeftShoulder -5.012691 -21.236533 -0.174229
LeftArm -5.794120 14.212951 -70.821656
LeftForeArm 2.080138 -0.000000 12.898006
LeftHand -1.785484 0.000000 1.649395
LeftHandThumb1 -26.253704 0.000000 33.147579
RightShoulder -9.101585 -16.194523 11.921776
RightArm 11.814820 1.462557 70.271291
RightForeArm -27.394335 -0.000000 26.719034
RightHand -10.480179 -0.000000 -3.093422
RightHandThumb1 -24.326973 -0.000000 -32.862282
LeftUpLeg 4.479792 7.776446 -8.276395
LeftLeg -0.436529 -0.000000 0.000000
LeftFoot -17.465039 23.941915 -10.660811
LeftToeBase 23.288496 -0.000000 -0.000000
RightUpLeg -36.774642 9.291359 -2.865718
RightLeg 71.675653 -0.000000 -0.000000
RightFoot 11.604077 -41.276014 -4.056174
RightToeBase 16.446727 -0.000000 -0.000000
911
root 19.205375 35.625151 -20.828051 -184.061136 -5.438036 -181.750117
Spine 5.315061 3.814927 -7.133820
Head 7.583637 -5.479157 9.639602
LeftShoulder -4.909904 -21.217544 -0.135663
LeftArm -5.842988 14.150607 -70.769228
LeftForeArm 1.872784 0.000000 12.748957
LeftHand -1.780176 0.000000 1.620411
LeftHandThumb1 -26.253704 0.000000 33.147579
RightShoulder -9.157032 -16.189190 12.088517
RightArm 11.815095 1.560678 70.111120
RightForeArm -27.236279 -0.000000 26.625134
RightHand -10.364538 -0.000000 -3.153667
RightHandThumb1 -24.326973 -0.000000 -32.862282
LeftUpLeg 4.574789 7.711985 -8.146212
LeftLeg -0.636325 -0.000000 0.000000
LeftFoot -17.390173 24.160310 -10.547929
LeftToeBase 23.165047 -0.000000 -0.000000
RightUpLeg -37.995274 9.380411 -2.310070
RightLeg 73.150616 -0.000000 -0.000000
RightFoot 13.135261 -40.648896 -4.423415
RightToeBase 16.350158 -0.000000 -0.000000
912
root 19.178852 35.632568 -20.818448 -184.089044 -5.344679 -181.568932
Spine 5.324975 3.716700 -7.104963
Head 7.509824 -5.452398 9.817514
LeftShoulder -4.862858 -21.251183 -0.069503
LeftArm -5.944039 14.211944 -70.745119
LeftForeArm 1.726156 0.000000 12.602647
LeftHand -1.692179 -0.000000 1.381802
LeftHandThumb1 -26.253704 0.000000 33.147579
RightShoulder -9.196699 -16.151772 12.235886
RightArm 11.807893 1.625840 69.959180
RightForeArm -27.263373 -0.000000 26.526371
RightHand -10.454950 -0.000000 -2.891575
RightHandThumb1 -24.326973 -0.000000 -32.862282
LeftUpLeg 4.700327 7.605244 -8.031028
LeftLeg -0.888689 -0.000000 0.000000
LeftFoot -17.284942 24.435943 -10.425439
LeftToeBase 23.126379 -0.000000 -0.000000
RightUpLeg -39.210269 9.404252 -1.770319
RightLeg 74.583411 -0.000000 -0.000000
RightFoot 14.462020 -39.992602 -4.892631
RightToeBase 17.195527 -0.000000 -0.000000
913
root 19.151175 35.639933 -20.806920 -184.095301 -5.238626 -181.403867
Spine 5.313297 3.610472 -7.092375
Head 7.454297 -5.405694 10.016682
LeftShoulder -4.854084 -21.287324 0.002319
LeftArm -6.034121 14.232962 -70.730834
LeftForeArm 1.533718 0.000000 12.417312
LeftHand -1.722681 -0.000000 1.510160
LeftHandThumb1 -26.253704 0.000000 33.147579
RightShoulder -9.209207 -16.126916 12.395110
RightArm 11.808843 1.713290 69.790856
RightForeArm -27.212081 -0.000000 26.347890
RightHand -10.145506 -0.000000 -3.361530
RightHandThumb1 -24.326973 -0.000000 -32.862282
LeftUpLeg 4.775931 7.599584 -7.925088
LeftLeg -1.078515 -0.000000 0.000000
LeftFoot -17.198217 24.577642 -10.435156
LeftToeBase 22.863326 -0.000000 -0.000000
RightUpLeg -40.446976 9.456242 -1.243331
RightLeg 75.961895 -0.000000 -0.000000
RightFoot 15.879526 -39.446591 -5.532197
RightToeBase 17.930457 -0.000000 -0.000000
914
root 19.119986 35.646001 -20.792726 -184.098333 -5.177509 -181.258766
Spine 5.314103 3.494155 -7.069281
Head 7.399865 -5.339820 10.142795
LeftShoulder -4.813342 -21.195454 0.031526
LeftArm -6.001307 14.128413 -70.673682
LeftForeArm 1.485429 -0.000000 12.252776
LeftHand -1.679620 -0.000000 1.131398
LeftHandThumb1 -26.253704 0.000000 33.147579
RightShoulder -9.236119 -16.052345 12.519400
RightArm 11.741496 1.933315 69.702584
RightForeArm -27.292863 -0.000000 26.255577
RightHand -10.169237 -0.000000 -3.269297
RightHandThumb1 -24.326973 -0.000000 -32.862282
LeftUpLeg 4.842583 7.586238 -7.838416
LeftLeg -1.262320 -0.000000 0.000000
LeftFoot -17.113374 24.672549 -10.316524
LeftToeBase 22.951162 -0.000000 -0.000000
RightUpLeg -41.677117 9.457700 -0.723384
RightLeg 77.264576 -0.000000 -0.000000
RightFoot 17.547059 -39.061268 -6.610265
RightToeBase 18.583372 -0.000000 -0.000000
915
root 19.090065 35.652380 -20.780420 -184.118279 -5.130952 -181.111025
Spine 5.347869 3.343040 -7.042352
Head 7.293958 -5.273195 10.301522
LeftShoulder -4.780687 -21.239192 0.043455
LeftArm -6.108332 14.032103 -70.608402
LeftForeArm 1.367494 0.000000 12.095838
LeftHand -1.690708 0.000000 1.076873
LeftHandThumb1 -26.253704 0.000000 33.147579
RightShoulder -9.261191 -16.033603 12.647376
RightArm 11.730188 2.123366 69.613036
RightForeArm -27.323256 -0.000000 26.167005
RightHand -10.336389 -0.000000 -2.696447
RightHandThumb1 -24.326973 -0.000000 -32.862282
LeftUpLeg 4.913524 7.656093 -7.737584
LeftLeg -1.413440 -0.000000 0.000000
LeftFoot -16.974745 24.654552 -10.175719
LeftToeBase 22.768769 -0.000000 -0.000000
RightUpLeg -42.871301 9.447768 -0.213486
RightLeg 78.553884 -0.000000 -0.000000
RightFoot 18.584604 -38.912162 -6.799873
RightToeBase 18.756301 -0.000000 -0.000000
916
root 19.065351 35.659736 -20.774953 -184.198104 -5.092949 -180.942717
Spine 5.443110 3.206319 -7.001144
Head 7.193829 -5.233329 10.432914
LeftShoulder -4.757800 -21.229594 0.062807
LeftArm -6.146248 13.982142 -70.539934
LeftForeArm 1.333235 0.000000 11.913668
LeftHand -1.672673 0.000000 0.827189
LeftHandThumb1 -26.253704 0.000000 33.147579
RightShoulder -9.267507 -15.980189 12.789367
RightArm 11.655424 2.324192 69.523729
RightForeArm -27.364393 -0.000000 26.088065
RightHand -10.319909 -0.000000 -2.857351
RightHandThumb1 -24.326973 -0.000000 -32.862282
LeftUpLeg 5.057790 7.774332 -7.594244
LeftLeg -1.575324 -0.000000 0.000000
LeftFoot -16.976379 24.618743 -10.132678
LeftToeBase 23.143116 -0.000000 -0.000000
RightUpLeg -43.969312 9.471397 0.323674
RightLeg 79.754815 -0.000000 -0.000000
RightFoot 19.572564 -38.803525 -7.267156
RightToeBase 19.623519 -0.000000 -0.000000
917
root 19.034082 35.664847 -20.756926 -184.198994 -5.043025 -180.795583
Spine 5.482666 3.057564 -6.948272
Head 7.060695 -5.181499 10.549986
LeftShoulder -4.762916 -21.242275 0.052625
LeftArm -6.201139 14.059636 -70.471632
LeftForeArm 0.991109 0.000000 11.778274
LeftHand -1.644791 0.000000 0.639556
LeftHandThumb1 -26.253704 0.000000 33.147579
RightShoulder -9.293921 -15.951911 12.874984
RightArm 11.644914 2.474046 69.468386
RightForeArm -27.202553 0.000000 26.022325
RightHand -10.319304 -0.000000 -2.945835
RightHandThumb1 -24.326973 -0.000000 -32.862282
LeftUpLeg 5.095434 7.760391 -7.512155
LeftLeg -1.716128 -0.000000 0.000000
LeftFoot -16.887162 24.688394 -10.026530
LeftToeBase 23.046851 -0.000000 -0.000000
RightUpLeg -45.163308 9.520063 0.814859
RightLeg 80.923132 -0.000000 -0.000000
RightFoot 20.403756 -38.720949 -7.576880
RightToeBase 19.779862 -0.000000 -0.000000
918
root 19.001361 35.669792 -20.741647 -184.247159 -4.980952 -180.669695
Spine 5.588211 2.915749 -6.906910
Head 6.922466 -5.096612 10.629645
LeftShoulder -4.765029 -21.243166 0.024189
LeftArm -6.249752 13.959566 -70.376119
LeftForeArm 0.990375 -0.000000 11.644608
LeftHand -1.733142 -0.000000 0.788532
LeftHandThumb1 -26.253704 0.000000 33.147579
RightShoulder -9.287526 -15.913123 12.953465
RightArm 11.645197 2.621140 69.414519
RightForeArm -27.270119 0.000000 25.878699
RightHand -10.407512 -0.000000 -2.800709
RightHandThumb1 -24.326973 -0.000000 -32.862282
LeftUpLeg 5.146177 7.838804 -7.441839
LeftLeg -1.783422 -0.000000 0.000000
LeftFoot -16.832386 24.718773 -9.940548
LeftToeBase 22.886111 -0.000000 -0.000000
RightUpLeg -46.310741 9.492253 1.290239
RightLeg 82.067533 -0.000000 -0.000000
RightFoot 21.064383 -38.564364 -8.012024
RightToeBase 20.777060 -0.000000 -0.000000
919
root 18.967638 35.673951 -20.726255 -184.324374 -4.917926 -180.539301
Spine 5.741027 2.802071 -6.842160
Head 6.746942 -5.016834 10.701104
LeftShoulder -4.758854 -21.246834 -0.005403
LeftArm -6.281054 13.981799 -70.315295
LeftForeArm 0.941343 0.000000 11.506947
LeftHand -1.710064 -0.000000 0.634403
LeftHandThumb1 -26.253704 0.000000 33.147579
RightShoulder -9.310711 -15.851057 13.012811
RightArm 11.634193 2.687531 69.355801
RightForeArm -26.967077 -0.000000 25.791731
RightHand -10.349702 -0.000000 -3.115654
RightHandThumb1 -24.326973 -0.000000 -32.862282
LeftUpLeg 5.218196 7.868954 -7.367472
LeftLeg -1.823764 -0.000000 0.000000
LeftFoot -16.777870 24.752403 -9.799099
LeftToeBase 22.852140 -0.000000 -0.000000
RightUpLeg -47.413195 9.505194 1.758592
RightLeg 83.159585 -0.000000 -0.000000
RightFoot 21.578705 -38.480994 -8.254673
RightToeBase 20.847213 -0.000000 -0.000000
